<svg xmlns="http://www.w3.org/2000/svg" xmlns:xlink="http://www.w3.org/1999/xlink" viewBox="0 0 311.93 208.59"><defs><style>.cls-1{fill:url(#linear-gradient);}.cls-2{fill:#049dbf;}</style><linearGradient id="linear-gradient" x1="165.29" y1="-38.63" x2="166.55" y2="231.89" gradientUnits="userSpaceOnUse"><stop offset="0.14" stop-color="#d9ac84"/><stop offset="0.17" stop-color="#d4b08d"/><stop offset="0.35" stop-color="#bdc4b6"/><stop offset="0.48" stop-color="#aed0d0"/><stop offset="0.57" stop-color="#a9d4d9"/></linearGradient></defs><g id="Layer_2" data-name="Layer 2"><g id="Layer_2-2" data-name="Layer 2"><path class="cls-1" d="M247.88,12.75A54.48,54.48,0,0,0,208.62,29.4a65.91,65.91,0,0,0-93.79-2.25,55.93,55.93,0,1,0-.21,94.73,65.94,65.94,0,0,0,100.79-10.54,54.64,54.64,0,1,0,32.47-98.59Z"/><path class="cls-2" d="M12.94,49.58c9.65,0,9.66-15,0-15s-9.67,15,0,15Z"/><path class="cls-2" d="M97.19,127.89a58.69,58.69,0,0,1-60.38-7.45C20.32,107.18,13,86.74,15.54,66c.5-4-3.8-7.5-7.5-7.5-4.46,0-7,3.47-7.5,7.5a73.52,73.52,0,0,0,28,66.9c22,16.95,51.2,19.39,76.26,8,3.71-1.69,4.54-7,2.69-10.26-2.17-3.81-6.6-4.36-10.26-2.69Z"/><path class="cls-2" d="M292.54,50.34c8.76,22.48,4.11,47.79-13.45,64.67A58.63,58.63,0,0,1,213.9,125.5c-8.68-4.11-16.3,8.82-7.57,12.95,27.45,13,60,8.8,82.41-11.94,21.82-20.15,29-52.56,18.26-80.16-1.46-3.76-5-6.41-9.22-5.24-3.6,1-6.73,5.42-5.24,9.23Z"/><path class="cls-2" d="M220.29,81.7a67.77,67.77,0,0,1-38.43,60.55c-21.21,10.21-46.87,7.68-66.2-5.38A67.1,67.1,0,0,1,86.6,82.4c-.19-21.34,10-42.26,27.46-54.76a67.81,67.81,0,0,1,76.18-1.77c8.16,5.2,15.69-7.77,7.57-12.95a82.8,82.8,0,0,0-84.16-2.75C90.34,23.09,74.91,47,72.05,73.42A82,82,0,0,0,100.35,144c21.43,18,51.11,24.38,77.92,15.74,33.8-10.9,56.64-42.64,57-78,.1-9.66-14.9-9.66-15,0Z"/><path class="cls-2" d="M43.56,192.49a12.75,12.75,0,0,0,1,5.06,13.25,13.25,0,0,0,7,7,12.57,12.57,0,0,0,5.05,1,12.32,12.32,0,0,0,5-1,13.22,13.22,0,0,0,4.13-2.81,18,18,0,0,0,2-2.58,1.47,1.47,0,0,1,2.26-.15,1.44,1.44,0,0,1,.45,1.05,1.35,1.35,0,0,1,0,.37,2,2,0,0,1-.13.32A12.7,12.7,0,0,1,68,203.86a16.59,16.59,0,0,1-5.1,3.47,16.11,16.11,0,0,1-12.49,0,16.36,16.36,0,0,1-8.58-8.58,15.94,15.94,0,0,1,0-12.47,16.47,16.47,0,0,1,3.46-5.12,16.3,16.3,0,0,1,5.12-3.46,15.43,15.43,0,0,1,6.23-1.27,15.69,15.69,0,0,1,6.26,1.25,16.33,16.33,0,0,1,5.1,3.44,13,13,0,0,1,2.4,3.18,1.67,1.67,0,0,1,.13.6,1.44,1.44,0,0,1-.45,1,1.41,1.41,0,0,1-1,.46,1.13,1.13,0,0,1-.78-.28,5.38,5.38,0,0,1-.64-.76,19.11,19.11,0,0,0-1.81-2.06,13.65,13.65,0,0,0-4.13-2.84,12.17,12.17,0,0,0-5-1,12.57,12.57,0,0,0-5.05,1,13.21,13.21,0,0,0-4.17,2.83,13.38,13.38,0,0,0-2.82,4.15A12.62,12.62,0,0,0,43.56,192.49Z"/><path class="cls-2" d="M94.22,179a1.46,1.46,0,0,1,.45-1.06,1.45,1.45,0,0,1,2.1,0,1.47,1.47,0,0,1,.46,1.06v19.6a9.93,9.93,0,0,1-.78,3.94,9.66,9.66,0,0,1-2.13,3.18A10,10,0,0,1,78,202.51a10.1,10.1,0,0,1-.77-3.94V179.1a1.61,1.61,0,0,1,.45-1.19,1.44,1.44,0,0,1,1-.45A1.54,1.54,0,0,1,80.2,179v19.6a7,7,0,0,0,.54,2.78,6.81,6.81,0,0,0,1.48,2.21A7.25,7.25,0,0,0,90,205.05a6.87,6.87,0,0,0,2.23-1.49,6.89,6.89,0,0,0,2-5Z"/><path class="cls-2" d="M103.67,196.77a11.46,11.46,0,0,1,.93-4.6,11.78,11.78,0,0,1,2.54-3.76,11.62,11.62,0,0,1,3.76-2.54,11.84,11.84,0,0,1,9.2,0,11.93,11.93,0,0,1,6.3,6.3,12,12,0,0,1,0,9.2,11.93,11.93,0,0,1-6.3,6.3,12,12,0,0,1-9.2,0,11.93,11.93,0,0,1-6.3-6.3A11.46,11.46,0,0,1,103.67,196.77Zm3,0a8.64,8.64,0,0,0,.69,3.42,8.85,8.85,0,0,0,4.71,4.71,8.94,8.94,0,0,0,6.84,0,8.85,8.85,0,0,0,4.71-4.71,8.82,8.82,0,0,0,0-6.84,8.76,8.76,0,0,0-4.71-4.71,8.82,8.82,0,0,0-6.84,0,8.76,8.76,0,0,0-4.71,4.71A8.6,8.6,0,0,0,106.68,196.77Z"/><path class="cls-2" d="M133.78,187.57a1.46,1.46,0,0,1,.45-1.06,1.45,1.45,0,0,1,2.1,0,1.46,1.46,0,0,1,.45,1.06V188a5.14,5.14,0,0,1,1.17-1.27,7.48,7.48,0,0,1,1.61-1,8.92,8.92,0,0,1,1.87-.62,9.53,9.53,0,0,1,2-.22,8.86,8.86,0,0,1,3.67.78,10.11,10.11,0,0,1,3.06,2.08,9.94,9.94,0,0,1,2.08,3.1,9.28,9.28,0,0,1,.78,3.76v11.4a1.41,1.41,0,0,1-.46,1.05,1.5,1.5,0,0,1-2.55-1.05v-11.4a6.57,6.57,0,0,0-.52-2.58,6.76,6.76,0,0,0-1.42-2.11,6.51,6.51,0,0,0-2.11-1.41,6.23,6.23,0,0,0-2.53-.52,6.06,6.06,0,0,0-3.68,1.18,7.6,7.6,0,0,0-2.43,3,6.36,6.36,0,0,0-.52,2.15v11.7a1.5,1.5,0,0,1-3,0Z"/><path class="cls-2" d="M162.24,192.49a12.58,12.58,0,0,0,1,5.06,13.25,13.25,0,0,0,7,7,12.53,12.53,0,0,0,5.05,1,12.32,12.32,0,0,0,5-1,13.22,13.22,0,0,0,4.13-2.81,18.78,18.78,0,0,0,2-2.58,1.47,1.47,0,0,1,2.26-.15,1.44,1.44,0,0,1,.45,1.05,1.35,1.35,0,0,1,0,.37,2,2,0,0,1-.13.32,12.52,12.52,0,0,1-2.37,3.09,16.42,16.42,0,0,1-5.09,3.47,16.11,16.11,0,0,1-12.49,0,16.36,16.36,0,0,1-8.58-8.58,15.94,15.94,0,0,1,0-12.47,16.27,16.27,0,0,1,8.58-8.58,15.43,15.43,0,0,1,6.23-1.27,15.73,15.73,0,0,1,6.26,1.25,16.17,16.17,0,0,1,5.09,3.44,12.8,12.8,0,0,1,2.41,3.18,1.67,1.67,0,0,1,.13.6,1.44,1.44,0,0,1-.45,1,1.41,1.41,0,0,1-1.05.46,1.13,1.13,0,0,1-.78-.28,5.38,5.38,0,0,1-.64-.76,19.11,19.11,0,0,0-1.81-2.06,13.65,13.65,0,0,0-4.13-2.84,12.17,12.17,0,0,0-5-1,12.53,12.53,0,0,0-5.05,1,13.21,13.21,0,0,0-4.17,2.83,13.38,13.38,0,0,0-2.82,4.15A12.45,12.45,0,0,0,162.24,192.49Z"/><path class="cls-2" d="M196.3,179a1.46,1.46,0,0,1,.45-1.06,1.51,1.51,0,0,1,2.56,1.06v27.09a1.41,1.41,0,0,1-.46,1.05,1.5,1.5,0,0,1-2.55-1.05Z"/><path class="cls-2" d="M205.76,196.77a11.45,11.45,0,0,1,.92-4.6,11.93,11.93,0,0,1,6.3-6.3,11.84,11.84,0,0,1,9.2,0,11.62,11.62,0,0,1,3.76,2.54,11.78,11.78,0,0,1,2.54,3.76,11.84,11.84,0,0,1,0,9.2,11.93,11.93,0,0,1-6.3,6.3,12,12,0,0,1-9.2,0,11.93,11.93,0,0,1-6.3-6.3A11.45,11.45,0,0,1,205.76,196.77Zm3,0a8.63,8.63,0,0,0,.68,3.42A8.85,8.85,0,0,0,221,204.9a8.85,8.85,0,0,0,4.71-4.71,8.82,8.82,0,0,0,0-6.84,8.76,8.76,0,0,0-4.71-4.71,8.82,8.82,0,0,0-6.84,0,8.85,8.85,0,0,0-4.71,4.71A8.59,8.59,0,0,0,208.77,196.77Z"/><path class="cls-2" d="M235.43,187.57a1.46,1.46,0,0,1,.45-1.06,1.45,1.45,0,0,1,2.1,0,1.47,1.47,0,0,1,.46,1.06v11.35a6.53,6.53,0,0,0,.51,2.58,6.3,6.3,0,0,0,1.42,2.08,6.79,6.79,0,0,0,2.09,1.4,6.19,6.19,0,0,0,2.55.52,6.36,6.36,0,0,0,2.58-.52,6.65,6.65,0,0,0,2.11-1.4,6.3,6.3,0,0,0,1.42-2.08,6.53,6.53,0,0,0,.52-2.58V187.57a1.46,1.46,0,0,1,.45-1.06,1.44,1.44,0,0,1,1-.45,1.48,1.48,0,0,1,1.06.45,1.46,1.46,0,0,1,.45,1.06v11.35a9.3,9.3,0,0,1-.76,3.74,9.58,9.58,0,0,1-2.06,3.07,10,10,0,0,1-3.08,2.09,9.52,9.52,0,0,1-7.5,0,9.74,9.74,0,0,1-5.07-5.16,9.46,9.46,0,0,1-.75-3.74Z"/><path class="cls-2" d="M284.1,196.77a11.63,11.63,0,0,1-.92,4.6,11.93,11.93,0,0,1-6.3,6.3,12,12,0,0,1-9.21,0,12,12,0,0,1-3.76-2.54,11.86,11.86,0,0,1-2.53-3.76,11.84,11.84,0,0,1,0-9.2,11.87,11.87,0,0,1,6.29-6.3,11.51,11.51,0,0,1,4.61-.93,10.74,10.74,0,0,1,5,1.34,11.61,11.61,0,0,1,3.78,2.79V179a1.46,1.46,0,0,1,.45-1.06,1.46,1.46,0,0,1,2.11,0,1.46,1.46,0,0,1,.45,1.06Zm-3,0a8.6,8.6,0,0,0-.69-3.42,9.07,9.07,0,0,0-1.89-2.82,8.85,8.85,0,0,0-2.82-1.89,8.8,8.8,0,0,0-6.83,0,8.85,8.85,0,0,0-2.82,1.89,9.07,9.07,0,0,0-1.89,2.82,8.82,8.82,0,0,0,0,6.84A8.91,8.91,0,0,0,266,203a8.8,8.8,0,0,0,12.47,0,8.91,8.91,0,0,0,1.89-2.81A8.64,8.64,0,0,0,281.09,196.77Z"/><path class="cls-2" d="M27.88,179.48a1.73,1.73,0,1,1,.51,1.27A1.72,1.72,0,0,1,27.88,179.48Z"/><path class="cls-2" d="M38.56,205.67a1.37,1.37,0,0,0-1.05-.52h-.06a5.68,5.68,0,0,1-2.52-.57,6.82,6.82,0,0,1-2-1.54,7.15,7.15,0,0,1-1.4-2.29A7.82,7.82,0,0,1,31,197.9V185.15a1.72,1.72,0,0,0-.45-1.17,1.35,1.35,0,0,0-2.1,0,1.72,1.72,0,0,0-.45,1.17v12.76a11.42,11.42,0,0,0,.75,4.13,11,11,0,0,0,2,3.4,9.85,9.85,0,0,0,3,2.3,8.26,8.26,0,0,0,3.72.85h.06a1.36,1.36,0,0,0,1.05-.51,1.8,1.8,0,0,0,.45-1.21A1.76,1.76,0,0,0,38.56,205.67Z"/></g></g></svg>